# File created by Blade
# Date/Time:  Fri Jan 16 19:18:57 2015
# Frame Rate: 120.000 fps
#------------------------------------------------------
:FULLY-SPECIFIED
:DEGREES
484
root 19.823499 35.759978 -22.165296 -167.974020 1.813323 -179.626498
Spine -26.011222 2.236581 0.447586
Head 21.249881 0.823875 -14.508750
LeftShoulder -16.216786 -52.163404 44.495142
LeftArm 50.072154 -44.359555 -14.340076
LeftForeArm -54.016443 -0.000000 77.164608
LeftHand 0.815246 -0.000000 -6.399631
LeftHandThumb1 -26.253704 0.000000 33.147579
RightShoulder -12.486706 25.206343 -53.673163
RightArm 135.083893 74.872964 104.751958
RightForeArm 26.494408 0.000000 94.193767
RightHand 9.690482 -0.000000 -1.613175
RightHandThumb1 -24.326973 -0.000000 -32.862282
LeftUpLeg -2.772306 9.900718 -1.279694
LeftLeg -6.970688 -0.000000 0.000000
LeftFoot -19.735713 26.405272 -17.660592
LeftToeBase 23.810458 -0.000000 -0.000000
RightUpLeg -4.839087 -4.301374 -0.190930
RightLeg -2.369198 -0.000000 0.000000
RightFoot -20.809110 -24.010303 17.535864
RightToeBase 23.035209 -0.000000 -0.000000
485
root 19.816973 35.762894 -22.164523 -168.041823 1.949361 -179.612012
Spine -25.886040 2.030062 0.544788
Head 21.070708 1.042759 -14.378044
LeftShoulder -16.129527 -52.253764 44.392520
LeftArm 49.820719 -44.193837 -13.777587
LeftForeArm -53.884805 -0.000000 76.337716
LeftHand 2.556596 -0.000000 -5.493910
LeftHandThumb1 -26.253704 0.000000 33.147579
RightShoulder -12.445751 24.980981 -52.980279
RightArm 134.844241 75.452420 105.310728
RightForeArm 25.699547 -0.000000 92.700717
RightHand 9.368412 -0.000000 -2.553462
RightHandThumb1 -24.326973 -0.000000 -32.862282
LeftUpLeg -2.701298 9.962284 -1.281598
LeftLeg -6.948099 -0.000000 0.000000
LeftFoot -19.775389 26.448974 -17.726431
LeftToeBase 23.794627 -0.000000 -0.000000
RightUpLeg -4.800756 -4.248653 -0.208114
RightLeg -2.360038 -0.000000 0.000000
RightFoot -20.778921 -23.936119 17.635839
RightToeBase 22.942733 -0.000000 -0.000000
486
root 19.809306 35.765533 -22.164137 -168.078829 2.074819 -179.596772
Spine -25.818168 1.846628 0.656637
Head 20.911471 1.458031 -14.155114
LeftShoulder -16.102026 -52.436383 44.476002
LeftArm 49.634048 -44.220562 -13.883205
LeftForeArm -54.001088 0.000000 76.254618
LeftHand 1.683810 -0.000000 -4.254245
LeftHandThumb1 -26.253704 0.000000 33.147579
RightShoulder -12.291469 24.655875 -52.330122
RightArm 134.703182 76.232052 105.966778
RightForeArm 24.632192 0.000000 91.371903
RightHand 8.660268 -0.000000 -4.067093
RightHandThumb1 -24.326973 -0.000000 -32.862282
LeftUpLeg -2.661730 10.006700 -1.286232
LeftLeg -6.922744 -0.000000 0.000000
LeftFoot -19.811572 26.497681 -17.766407
LeftToeBase 23.768171 -0.000000 -0.000000
RightUpLeg -4.788678 -4.230666 -0.219723
RightLeg -2.350665 -0.000000 0.000000
RightFoot -20.733696 -23.828681 17.727517
RightToeBase 22.852757 -0.000000 -0.000000
487
root 19.801833 35.769919 -22.162230 -168.139444 2.210645 -179.595289
Spine -25.731801 1.608116 0.709863
Head 20.848345 1.623061 -13.923644
LeftShoulder -16.275714 -52.633616 44.938217
LeftArm 49.738160 -44.385900 -14.763837
LeftForeArm -53.696642 -0.000000 76.645897
LeftHand -0.517020 -0.000000 -2.818945
LeftHandThumb1 -26.253704 0.000000 33.147579
RightShoulder -12.116019 24.535221 -51.577066
RightArm 134.091147 76.810061 106.136843
RightForeArm 22.643758 -0.000000 89.918230
RightHand 8.197471 0.000000 -4.766978
RightHandThumb1 -24.326973 -0.000000 -32.862282
LeftUpLeg -2.598926 10.060446 -1.301277
LeftLeg -6.896211 -0.000000 0.000000
LeftFoot -19.849500 26.522856 -17.863916
LeftToeBase 23.712901 -0.000000 -0.000000
RightUpLeg -4.758508 -4.190492 -0.249298
RightLeg -2.333594 -0.000000 0.000000
RightFoot -20.700611 -23.809640 17.621623
RightToeBase 23.148150 -0.000000 -0.000000
488
root 19.795559 35.774073 -22.160067 -168.170119 2.346774 -179.590217
Spine -25.662137 1.434594 0.784812
Head 20.702448 1.847322 -13.777716
LeftShoulder -16.326398 -52.746723 45.060564
LeftArm 49.706517 -44.472528 -15.037320
LeftForeArm -52.256412 -0.000000 76.545503
LeftHand -0.964680 -0.000000 -1.547356
LeftHandThumb1 -26.253704 0.000000 33.147579
RightShoulder -12.184166 24.860211 -51.114220
RightArm 130.411564 77.329315 103.311643
RightForeArm 20.515703 -0.000000 88.512455
RightHand 7.419481 -0.000000 -6.348895
RightHandThumb1 -24.326973 -0.000000 -32.862282
LeftUpLeg -2.570681 10.141389 -1.318476
LeftLeg -6.867918 -0.000000 0.000000
LeftFoot -19.848492 26.513301 -17.908654
LeftToeBase 23.575710 -0.000000 -0.000000
RightUpLeg -4.743437 -4.117016 -0.276454
RightLeg -2.343227 -0.000000 0.000000
RightFoot -20.620724 -23.739524 17.681300
RightToeBase 22.973959 -0.000000 -0.000000
489
root 19.787934 35.776499 -22.157335 -168.187612 2.473372 -179.582038
Spine -25.600312 1.267228 0.872651
Head 20.510930 2.084811 -13.587976
LeftShoulder -16.381057 -52.842058 45.145829
LeftArm 49.516795 -44.499557 -15.047473
LeftForeArm -51.733344 -0.000000 76.172875
LeftHand -0.646452 -0.000000 -0.793527
LeftHandThumb1 -26.253704 0.000000 33.147579
RightShoulder -12.069102 24.691800 -50.440284
RightArm 129.382784 77.920829 102.843201
RightForeArm 19.169310 -0.000000 86.765240
RightHand 7.101998 0.000000 -7.625156
RightHandThumb1 -24.326973 -0.000000 -32.862282
LeftUpLeg -2.546009 10.194676 -1.335828
LeftLeg -6.863987 -0.000000 0.000000
LeftFoot -19.874183 26.564314 -17.973853
LeftToeBase 23.531380 -0.000000 -0.000000
RightUpLeg -4.749749 -4.092341 -0.293856
RightLeg -2.349185 -0.000000 0.000000
RightFoot -20.584309 -23.649350 17.751613
RightToeBase 22.965156 -0.000000 -0.000000
490
root 19.779416 35.780075 -22.154968 -168.201593 2.590430 -179.582543
Spine -25.556708 1.124726 0.956609
Head 20.395763 2.318923 -13.500995
LeftShoulder -16.373062 -52.976237 45.164439
LeftArm 49.382663 -44.535569 -15.083935
LeftForeArm -50.612940 -0.000000 76.055360
LeftHand -1.391036 -0.000000 0.943859
LeftHandThumb1 -26.253704 0.000000 33.147579
RightShoulder -11.938112 24.341768 -49.791257
RightArm 128.648214 78.505698 102.625226
RightForeArm 19.256666 -0.000000 85.111643
RightHand 6.582599 -0.000000 -9.432297
RightHandThumb1 -24.326973 -0.000000 -32.862282
LeftUpLeg -2.535081 10.273637 -1.363617
LeftLeg -6.840305 -0.000000 0.000000
LeftFoot -19.907839 26.558026 -18.059694
LeftToeBase 23.509895 -0.000000 -0.000000
RightUpLeg -4.755663 -4.075796 -0.318655
RightLeg -2.356253 -0.000000 0.000000
RightFoot -20.522006 -23.573558 17.780420
RightToeBase 22.907163 -0.000000 -0.000000
491
root 19.771275 35.782235 -22.154083 -168.207981 2.690242 -179.583068
Spine -25.518901 0.968560 1.039592
Head 20.220205 2.529086 -13.298392
LeftShoulder -16.420675 -53.125031 45.278157
LeftArm 49.106282 -44.525951 -15.032008
LeftForeArm -49.367556 -0.000000 75.858587
LeftHand -1.664445 -0.000000 2.297054
LeftHandThumb1 -26.253704 0.000000 33.147579
RightShoulder -11.880416 24.194485 -49.193672
RightArm 126.863187 78.965691 101.388150
RightForeArm 18.416945 -0.000000 83.385251
RightHand 6.248712 -0.000000 -10.186730
RightHandThumb1 -24.326973 -0.000000 -32.862282
LeftUpLeg -2.526480 10.343005 -1.389757
LeftLeg -6.823354 -0.000000 0.000000
LeftFoot -19.889774 26.571698 -18.058336
LeftToeBase 23.397839 -0.000000 -0.000000
RightUpLeg -4.751182 -4.078272 -0.343026
RightLeg -2.382879 -0.000000 0.000000
RightFoot -20.472510 -23.465108 17.821472
RightToeBase 22.871385 -0.000000 -0.000000
